<?xml version="1.0" encoding="UTF-8" standalone="no"?>
<svg
   xmlns:dc="http://purl.org/dc/elements/1.1/"
   xmlns:cc="http://creativecommons.org/ns#"
   xmlns:rdf="http://www.w3.org/1999/02/22-rdf-syntax-ns#"
   xmlns:svg="http://www.w3.org/2000/svg"
   xmlns="http://www.w3.org/2000/svg"
   xmlns:sodipodi="http://sodipodi.sourceforge.net/DTD/sodipodi-0.dtd"
   xmlns:inkscape="http://www.inkscape.org/namespaces/inkscape"
   width="205px"
   height="45px"
   viewBox="0 0 205 45"
   version="1.1"
   id="SVGRoot"
   sodipodi:docname="banner.svg"
   inkscape:version="1.0.1 (3bc2e813f5, 2020-09-07)">
  <defs
     id="defs65">
    <rect
       x="8.5426188"
       y="-23.759157"
       width="231.85201"
       height="61.667027"
       id="rect781-9" />
    <rect
       x="8.5426188"
       y="-23.759157"
       width="231.85201"
       height="61.667027"
       id="rect87" />
    <clipPath
       id="clip">
      <path
         d="m 0,0 h 7.75 a 45.5,45.5 0 1 1 0,91 H 0 V 71 h 7.75 a 25.5,25.5 0 1 0 0,-51 H 0 Z m 36.251,0 h 32 A 27.75,27.75 0 0 1 89.582,45.5 27.75,27.75 0 0 1 68.251,91 h -32 A 53.6895,53.6895 0 0 0 54.9974,71 H 68.25 a 7.75,7.75 0 1 0 0,-15.5 H 60.5 a 53.6895,53.6895 0 0 0 0,-20 h 7.75 a 7.75,7.75 0 1 0 0,-15.5 H 54.9974 A 53.6895,53.6895 0 0 0 36.251,0 Z"
         id="path2" />
    </clipPath>
    <linearGradient
       id="gradient-1"
       gradientUnits="userSpaceOnUse"
       x1="7"
       y1="64"
       x2="50"
       y2="107">
      <stop
         offset="0"
         stop-color="#f9a03c"
         id="stop5" />
      <stop
         offset="1"
         stop-color="#f7974e"
         id="stop7" />
    </linearGradient>
    <linearGradient
       id="gradient-3"
       gradientUnits="userSpaceOnUse"
       x1="45"
       y1="-10"
       x2="108"
       y2="53">
      <stop
         offset="0"
         stop-color="#b84e51"
         id="stop15" />
      <stop
         offset="1"
         stop-color="#f68e48"
         id="stop17" />
    </linearGradient>
    <linearGradient
       id="gradient-2"
       gradientUnits="userSpaceOnUse"
       x1="2"
       y1="-2"
       x2="87"
       y2="84">
      <stop
         offset="0"
         stop-color="#f26d58"
         id="stop10" />
      <stop
         offset="1"
         stop-color="#f9a03c"
         id="stop12" />
    </linearGradient>
  </defs>
  <sodipodi:namedview
     id="base"
     pagecolor="#ffffff"
     bordercolor="#666666"
     borderopacity="1.0"
     inkscape:pageopacity="0.0"
     inkscape:pageshadow="2"
     inkscape:zoom="3.3535004"
     inkscape:cx="79.64795"
     inkscape:cy="38.465036"
     inkscape:document-units="px"
     inkscape:current-layer="layer1"
     inkscape:document-rotation="0"
     showgrid="false"
     inkscape:window-width="1889"
     inkscape:window-height="1024"
     inkscape:window-x="9"
     inkscape:window-y="0"
     inkscape:window-maximized="0" />
  <metadata
     id="metadata68">
    <rdf:RDF>
      <cc:Work
         rdf:about="">
        <dc:format>image/svg+xml</dc:format>
        <dc:type
           rdf:resource="http://purl.org/dc/dcmitype/StillImage" />
        <dc:title />
      </cc:Work>
    </rdf:RDF>
  </metadata>
  <g
     inkscape:label="Layer 1"
     inkscape:groupmode="layer"
     id="layer1">
    <text
       xml:space="preserve"
       style="font-style:normal;font-variant:normal;font-weight:400;font-size:11.43px;line-height:125%;font-family:Chopsic;text-align:start;letter-spacing:0px;word-spacing:0px;text-anchor:start;fill:#000000;fill-opacity:1;stroke:none;stroke-width:0.774914"
       x="125.67181"
       y="39.384945"
       id="text544"
       transform="scale(1.1167663,0.89544249)"><tspan
         sodipodi:role="line"
         x="125.67181"
         y="39.384945"
         id="tspan542"
         style="stroke-width:0.774914"><tspan
           dx="0"
           dy="0"
           style="font-style:normal;font-variant:normal;font-weight:400;font-size:11.43px;font-family:Chopsic;fill:#000000;stroke-width:0.774914"
           id="tspan540"> </tspan></tspan></text>
    <path
       style="fill:#000000;fill-opacity:1;fill-rule:nonzero;stroke:none;stroke-width:0.654754"
       id="path600"
       d="m 60.781252,12.688196 c -2.572564,-0.397659 -5.208993,-0.448503 -7.817982,-0.536311 -2.249626,-0.0085 -4.652094,-0.107039 -6.766756,0.658191 -0.334371,0.120998 -0.644483,0.283766 -0.966725,0.425647 -1.317462,0.922431 -2.683505,1.799029 -3.952369,2.767294 -0.278986,0.212891 -0.468944,0.495658 -0.671805,0.761395 -0.711591,0.932152 -1.158255,1.975222 -1.515051,3.029906 -0.293972,1.468223 -0.457334,2.989081 -0.330248,4.478743 0.03509,0.410781 0.121263,0.81744 0.181903,1.22616 0.433281,2.016258 1.424082,3.88546 2.484104,5.717915 0.113154,0.171391 0.178785,0.371333 0.339452,0.514172 0.842624,0.749129 2.318662,0.912073 3.448885,1.059211 1.232914,0.160504 2.469609,0.235506 3.711175,0.327731 1.726794,0.0356 3.974467,0.425341 5.642894,-0.136939 0.182358,-0.06146 0.340991,-0.163263 0.511483,-0.244895 3.311229,-2.26611 3.449085,-1.864574 4.12795,-4.280534 0.05975,-0.164042 0.119486,-0.328086 0.17923,-0.492127 0,0 -3.392545,1.92773 -3.392545,1.92773 v 0 c -0.0563,0.168233 -0.112548,0.336466 -0.168817,0.504699 -0.09932,0.328616 -0.182581,0.675919 -0.337379,0.991141 -0.557622,1.135567 -2.613621,2.141692 2.307574,-1.213298 -0.136913,0.107007 -0.248695,0.241843 -0.410743,0.321021 -0.191187,0.09342 -0.412031,0.139487 -0.626707,0.185889 -1.60841,0.34766 -3.272117,0.110769 -4.901007,0.04464 -1.26754,-0.0894 -2.422063,-0.156395 -3.68351,-0.304136 -0.842026,-0.09862 -2.537894,-0.245981 -3.207411,-0.831787 -0.15723,-0.137574 -0.217438,-0.333607 -0.326165,-0.500409 -1.038627,-1.801421 -2.004236,-3.642327 -2.400866,-5.628195 -0.05207,-0.399081 -0.127683,-0.796528 -0.156273,-1.197245 -0.104484,-1.464407 0.04275,-2.962051 0.400802,-4.395705 0.383224,-1.023184 0.844154,-2.041767 1.599438,-2.923143 0.214895,-0.250763 1.024416,-0.873053 0.709231,-0.71111 -0.84043,0.431814 -1.544214,1.024561 -2.316318,1.536842 0.306372,-0.153958 0.598606,-0.329239 0.919109,-0.461874 2.042641,-0.845298 4.435549,-0.752747 6.649248,-0.752711 2.591014,0.08286 5.205865,0.133454 7.766576,0.49251 0,0 2.969623,-2.360412 2.969623,-2.360412 z" />
    <path
       style="fill:#000000;fill-opacity:1;fill-rule:nonzero;stroke:none;stroke-width:0.872616"
       id="path602"
       d="m 67.034859,13.083421 c -0.270738,1.566005 -0.537938,3.132048 -0.814041,4.697326 -0.510353,2.141375 -0.66579,4.320886 -1.094744,6.473011 -0.639223,2.401611 -1.151017,4.824339 -1.702187,7.24058 -0.207167,0.763702 -0.290242,1.549833 -0.534214,2.306176 0,0 4.465589,-2.610643 4.465589,-2.610643 v 0 c 0.19018,-0.771793 0.333102,-1.551294 0.519789,-2.323738 0.539955,-2.421185 1.09519,-4.839163 1.693857,-7.250643 0.402354,-2.156055 0.590953,-4.335112 1.089726,-6.479046 0.266808,-1.564252 0.545225,-3.126777 0.820121,-4.690013 0,0 -4.443896,2.63699 -4.443896,2.63699 z" />
    <path
       style="fill:#000000;fill-opacity:1;fill-rule:nonzero;stroke:none;stroke-width:0.765739"
       id="path604"
       d="m 66.028444,23.416825 c 2.083508,0.140805 4.17885,0.16455 6.271335,0.19118 2.024844,0.02445 4.050025,0.02875 6.075153,0.0303 1.030813,-0.0047 2.05648,-0.05299 3.081105,-0.12088 0,0 3.794345,-2.528472 3.794345,-2.528472 v 0 c -1.008919,0.08461 -2.018676,0.134671 -3.036532,0.149582 -2.022843,-7.98e-4 -4.045748,-0.0032 -6.068355,-0.02586 -2.081692,-0.02399 -4.166404,-0.03989 -6.240409,-0.170799 0,0 -3.876642,2.474953 -3.876642,2.474953 z" />
    <path
       style="fill:#000000;fill-opacity:1;fill-rule:nonzero;stroke:none;stroke-width:0.90421"
       id="path606"
       d="m 84.046312,13.937683 c -0.40256,1.98362 -0.773448,3.975566 -1.336283,5.928139 -0.434128,1.182928 -0.663153,2.422586 -1.137206,3.5922 -0.343347,1.211948 -0.745866,2.409116 -1.083182,3.622423 -0.233411,1.401577 -0.805569,2.724114 -1.372273,4.039192 -0.643376,1.383323 -1.128431,2.813473 -1.381112,4.297149 0,0 4.444968,-2.830068 4.444968,-2.830068 v 0 c 0.298328,-1.454062 0.820581,-2.850359 1.442094,-4.216465 0.554735,-1.333442 1.062719,-2.678169 1.337878,-4.085121 0.354121,-1.200974 0.716632,-2.400495 1.105721,-3.592453 0.413663,-1.196211 0.717742,-2.423278 1.112563,-3.624945 0.5294,-1.970676 0.926046,-3.96844 1.306826,-5.966549 0,0 -4.439994,2.836498 -4.439994,2.836498 z" />
    <path
       style="fill:#000000;fill-opacity:1;fill-rule:nonzero;stroke:none;stroke-width:0.812015"
       id="path608"
       d="m 98.33043,11.490348 c -1.087416,1.157457 -2.039366,2.402903 -2.953846,3.679286 -1.295138,1.812365 -2.312433,3.809199 -3.046669,5.87276 -0.632256,2.243492 -1.182426,4.504715 -1.668937,6.779174 -0.222467,1.358019 -0.591785,2.69011 -0.817477,4.046995 -0.129848,0.840532 -0.131333,1.69123 -0.141848,2.538448 0.227319,0.33501 0.06585,0.180569 0.542316,0.404112 0,0 3.256738,-3.301023 3.256738,-3.301023 v 0 c 0.109041,0.321494 0.106669,0.417036 0.104145,0.269878 0.01461,-0.830309 0.03207,-1.663678 0.183343,-2.484397 0.250913,-1.348797 0.588769,-2.682887 0.827167,-4.034119 0.488694,-2.259432 1.032716,-4.510739 1.70581,-6.729296 0.786542,-2.028739 1.798488,-3.995346 3.114748,-5.776697 0.91259,-1.263176 1.88739,-2.488658 3.00404,-3.6048395 0,0 -4.10953,2.3397185 -4.10953,2.3397185 z" />
    <path
       style="fill:#000000;fill-opacity:1;fill-rule:nonzero;stroke:none;stroke-width:0.812015"
       id="path610"
       d="m 96.44269,13.743422 c 2.46378,0.02887 3.23026,0.580141 4.82121,2.287127 0.85484,1.038991 1.68555,2.159981 2.19371,3.391471 0.27227,0.659849 0.3073,0.989348 0.45477,1.686307 0.25828,1.441227 0.28029,2.904483 0.28311,4.361615 -0.007,1.251949 -0.0167,2.503882 -0.023,3.755836 -0.005,1.16706 -0.005,2.334134 -0.006,3.501203 -0.0367,0.692207 0.35883,1.244436 0.63081,1.852995 0,0 3.78138,-2.776575 3.78138,-2.776575 v 0 c -0.26531,-0.558746 -0.56724,-1.070079 -0.51282,-1.708353 5.4e-4,-1.166529 7.9e-4,-2.333066 0.006,-3.499585 0.007,-1.253078 0.0185,-2.506138 0.0204,-3.759231 -0.0115,-1.482613 -0.051,-2.971406 -0.34089,-4.433892 -0.18185,-0.767968 -0.21024,-1.041925 -0.5231,-1.768032 -0.54422,-1.262986 -1.3893,-2.418091 -2.27819,-3.487387 -1.65115,-1.772856 -2.5269,-2.484713 -5.10052,-2.569882 0,0 -3.408084,3.166383 -3.408084,3.166383 z" />
    <path
       style="fill:#000000;fill-opacity:1;fill-rule:nonzero;stroke:none;stroke-width:0.812015"
       id="path612"
       d="m 93.858315,26.878719 c 3.593499,0 7.187005,0 10.780495,0 0,0 3.4081,-3.166383 3.4081,-3.166383 v 0 c -3.5935,0 -7.18701,0 -10.780506,0 0,0 -3.408089,3.166383 -3.408089,3.166383 z" />
    <path
       style="fill:#000000;fill-opacity:1;fill-rule:nonzero;stroke:none;stroke-width:0.760881"
       id="path614"
       d="m 116.36559,13.80712 c -0.81385,3.63707 -1.29337,7.317395 -1.65288,11.006623 -0.26204,2.823762 -0.3513,5.655678 -0.38663,8.487406 0.0117,2.334093 -0.52182,1.863616 3.77506,-1.360416 2.4e-4,-1.92e-4 0.003,-0.589181 0.004,-0.703415 0,0 -3.77665,2.385294 -3.77665,2.385294 v 0 c -8.1e-4,0.134314 -0.002,0.268628 -0.003,0.40294 -8.1e-4,0.0993 -0.10141,0.348475 -0.003,0.297892 4.00487,-2.062968 3.77631,-1.118085 3.78223,-3.405389 0.0401,-2.823782 0.13855,-5.647569 0.40688,-8.462911 0.36865,-3.669333 0.8371,-7.336839 1.70113,-10.946623 0,0 -3.84699,2.298599 -3.84699,2.298599 z" />
    <path
       style="fill:#000000;fill-opacity:1;fill-rule:nonzero;stroke:none;stroke-width:0.782993"
       id="path616"
       d="m 116.61562,13.326767 c -5.78647,4.608802 -3.47828,2.477061 -2.02919,1.744979 0.55925,-0.282532 1.14172,-0.46378 1.74962,-0.630905 1.49899,-0.245545 2.85874,0.363447 4.18357,0.93497 1.29099,0.556938 1.49234,0.678489 2.71037,1.288342 1.77133,0.995787 2.77813,2.152998 3.11548,4.043442 -0.0357,0.161009 -0.0334,0.333305 -0.10684,0.48303 -0.26708,0.544244 -1.13788,1.045422 -0.96985,0.888037 0.83937,-0.786244 1.91116,-1.381405 2.59591,-2.286013 0.23317,-0.30803 -0.76349,0.263888 -1.15174,0.378146 -0.38126,0.112208 -0.77031,0.200581 -1.15545,0.300873 -1.23936,0.278494 -2.51318,0.388025 -3.76116,0.62358 -0.17054,0.03219 -1.49291,0.30045 -1.73258,0.469646 -1.33336,0.941262 -2.57064,1.992775 -3.85597,2.989162 0.098,0.174961 0.15971,0.371807 0.29413,0.524883 0.58229,0.663178 1.56566,1.016221 2.35643,1.400116 1.20286,0.593763 0.60072,0.29913 1.80642,0.883918 1.67894,0.752697 3.42601,1.357788 5.11515,2.09055 1.61485,0.641533 2.81472,1.839533 4.20779,2.775788 1.11957,0.635586 2.32161,1.11521 3.58546,1.43821 0,0 3.38142,-2.963604 3.38142,-2.963604 v 0 c -1.22825,-0.26439 -2.37746,-0.735415 -3.46826,-1.320321 -1.43007,-0.929645 -2.62405,-2.178758 -4.26416,-2.833588 -1.68144,-0.736244 -3.41728,-1.348402 -5.10196,-2.077217 -0.60514,-0.292433 -1.20413,-0.595572 -1.80971,-0.887249 -0.68146,-0.328231 -1.60866,-0.620572 -2.14133,-1.165921 -0.0302,-0.03092 0.007,-0.08299 0.009,-0.124481 -1.09468,0.808772 -2.23704,1.565591 -3.28401,2.426318 -0.18554,0.152539 0.44417,-0.209275 0.67896,-0.284698 1.53615,-0.493451 3.19829,-0.507542 4.77298,-0.844599 0.25361,-0.06122 2.14785,-0.499229 2.36433,-0.62994 1.57971,-0.953925 3.05927,-2.043163 4.54579,-3.116788 0.6131,-0.442815 0.8435,-1.038555 0.81169,-1.730631 -0.45166,-1.936323 -1.5194,-3.301985 -3.37791,-4.335686 -1.64806,-0.833684 -3.65086,-1.89038 -5.46387,-2.339009 -0.63208,-0.156406 -1.04526,-0.120467 -1.6798,-0.119869 -3.03807,0.693863 -4.35159,2.152043 -6.92867,4.225216 0,0 3.99748,-2.218687 3.99748,-2.218687 z" />
    <path
       style="fill:#000000;fill-opacity:1;fill-rule:nonzero;stroke:none;stroke-width:0.774914"
       id="path618"
       d="m 142.75599,14.591765 c 0.0232,2.861837 0.16111,5.722674 0.24254,8.583943 -0.0318,1.683574 0.11105,3.352449 0.39984,5.017543 0.15156,1.125995 0.38817,2.241839 0.53845,3.36802 0.33262,0.894844 0.58636,1.791244 0.69518,2.721437 -0.005,0.530745 0.0363,0.323175 -0.0429,0.629508 0,0 4.03526,-2.300281 4.03526,-2.300281 v 0 c 0.008,-0.357216 0.007,-0.125093 -0.0176,-0.696237 -0.13454,-0.927043 -0.41678,-1.8193 -0.69669,-2.723063 -0.16018,-1.127933 -0.38958,-2.248236 -0.54638,-3.376545 -0.28082,-1.652907 -0.37594,-3.3124 -0.36635,-4.98121 -0.0826,-2.858728 -0.22191,-5.717066 -0.23585,-8.576564 0,0 -4.00555,2.333449 -4.00555,2.333449 z" />
    <path
       style="fill:#000000;fill-opacity:1;fill-rule:nonzero;stroke:none;stroke-width:0.774914"
       id="path620"
       d="m 137.01006,15.021092 c 4.6801,-0.0411 9.35762,0.03967 14.03154,0.227621 0.55722,0.03478 1.11443,0.06955 1.67166,0.104332 0,0 3.52906,-2.784443 3.52906,-2.784443 v 0 c -0.56067,-0.03757 -1.12132,-0.07514 -1.68197,-0.112718 -4.67964,-0.193834 -9.36294,-0.287125 -14.04931,-0.241935 0,0 -3.50098,2.807143 -3.50098,2.807143 z" />
    <path
       style="fill:#000000;fill-opacity:1;fill-rule:nonzero;stroke:none;stroke-width:0.653573"
       id="path624"
       d="m 174.15689,11.887892 c -0.89904,-0.3423 -1.83732,-0.511067 -2.77954,-0.630371 -0.92535,-0.106174 -1.85713,-0.103384 -2.78641,-0.107744 -0.97583,-0.04486 -1.93346,0.0125 -2.88061,0.273065 -1.84856,0.657667 -3.79445,2.013585 -4.72808,3.875031 -0.25617,0.613956 -0.29499,1.282956 -0.30828,1.946743 0.12074,0.789008 0.52949,1.461017 0.91664,2.122282 0.43272,0.784534 1.06773,1.396309 1.73342,1.938146 0.9227,0.747755 1.93782,1.338374 2.93397,1.957332 1.04518,0.654376 2.1065,1.274291 3.23338,1.743458 0.65915,0.247894 1.31442,0.529443 1.89146,0.962049 0.43847,0.422894 0.79449,0.942033 1.01686,1.53278 0.19405,0.734483 0.20425,1.506489 0.22018,2.265249 0.0125,0.651028 0.0317,1.294007 -0.0853,1.933745 -0.13293,0.275951 -0.36823,0.460899 -0.57633,0.665605 -0.0951,0.09352 -0.3838,0.369733 -0.28582,0.279862 2.81215,-2.579384 3.20156,-2.907012 2.11915,-1.978803 -0.64709,0.578127 -1.48715,0.723618 -2.26275,1.00094 -0.79016,0.346956 -1.601,0.608417 -2.44156,0.754597 -0.80416,0.135114 -1.61231,0.08778 -2.41748,0.0029 -0.56702,-0.02692 -0.98824,-0.320247 -1.44925,-0.63737 -0.49385,-0.281326 -0.77486,-0.720794 -0.97562,-1.272257 -0.099,-0.378595 -0.0584,-0.178807 -0.11604,-0.600714 0,0 -2.85563,2.354107 -2.85563,2.354107 v 0 c 0.0915,0.470045 0.035,0.247889 0.16367,0.668138 0.24508,0.606111 0.57105,1.131829 1.11749,1.456679 0.50112,0.335209 0.94874,0.71044 1.56056,0.767221 0.82463,0.09477 1.64978,0.180067 2.47772,0.06281 0.85604,-0.11018 1.6964,-0.325138 2.48836,-0.705741 0.31153,-0.112819 0.61865,-0.240553 0.93309,-0.34327 0.49291,-0.161022 1.00699,-0.188433 1.41843,-0.569673 1.31136,-1.069278 0.53734,-0.428584 3.29648,-2.990055 0.33529,-0.311271 0.64463,-0.675703 0.73444,-1.158949 0.0851,-0.661691 0.0515,-1.329763 0.0445,-1.996113 -0.0254,-0.802713 -0.0522,-1.620765 -0.30321,-2.384497 -0.27138,-0.644875 -0.6561,-1.221165 -1.14176,-1.695867 -0.59058,-0.466879 -1.26408,-0.785165 -1.9538,-1.037102 -1.11834,-0.440615 -2.16326,-1.054061 -3.19418,-1.696703 -0.98403,-0.612596 -1.99079,-1.189341 -2.90609,-1.923173 -0.63682,-0.505725 -1.24137,-1.080702 -1.64799,-1.828106 -0.34626,-0.596833 -0.74053,-1.20852 -0.7849,-1.934811 0.0309,-0.619488 0.101,-1.236695 0.4184,-1.769774 0.85992,-1.170624 0.44214,-0.560355 -2.24318,1.896807 -0.0974,0.08915 0.2079,-0.160352 0.31769,-0.230296 0.37281,-0.237524 0.7682,-0.451481 1.17827,-0.598715 0.0136,-0.0041 0.82314,-0.250951 0.8458,-0.255533 0.64709,-0.130877 1.31485,-0.07315 1.96765,-0.08906 0.92012,0.0022 1.8424,-0.0073 2.75998,0.07853 0.92271,0.102325 1.84428,0.244332 2.72673,0.570132 0,0 2.60959,-2.673403 2.60959,-2.673403 z" />
    <g
       clip-path="url(#clip)"
       id="g26"
       transform="matrix(0.38707765,0,0,0.38632726,0.1532605,6.0056029)">
      <path
         d="m -100,-102 m -28,0 v 300 h 300 z"
         fill="url(#gradient-1)"
         id="path20"
         style="fill:url(#gradient-1)" />
      <path
         d="m -100,-102 m 28,0 h 300 v 300 z"
         fill="url(#gradient-3)"
         id="path22"
         style="fill:url(#gradient-3)" />
      <path
         d="M -100,-102 200,198"
         fill="none"
         stroke="url(#gradient-2)"
         stroke-width="40"
         id="path24"
         style="stroke:url(#gradient-2)" />
    </g>
  </g>
</svg>
