<?xml version="1.0" encoding="UTF-8" standalone="no"?>
<svg
   xmlns:dc="http://purl.org/dc/elements/1.1/"
   xmlns:cc="http://creativecommons.org/ns#"
   xmlns:rdf="http://www.w3.org/1999/02/22-rdf-syntax-ns#"
   xmlns:svg="http://www.w3.org/2000/svg"
   xmlns="http://www.w3.org/2000/svg"
   xmlns:sodipodi="http://sodipodi.sourceforge.net/DTD/sodipodi-0.dtd"
   xmlns:inkscape="http://www.inkscape.org/namespaces/inkscape"
   width="12px"
   height="12px"
   viewBox="0 0 12 12"
   version="1.1"
   id="SVGRoot"
   sodipodi:docname="d3.svg"
   inkscape:version="1.0.1 (3bc2e813f5, 2020-09-07)">
  <defs
     id="defs59">
    <clipPath
       id="clip">
      <path
         d="m 0,0 h 7.75 a 45.5,45.5 0 1 1 0,91 H 0 V 71 h 7.75 a 25.5,25.5 0 1 0 0,-51 H 0 Z m 36.251,0 h 32 A 27.75,27.75 0 0 1 89.582,45.5 27.75,27.75 0 0 1 68.251,91 h -32 A 53.6895,53.6895 0 0 0 54.9974,71 H 68.25 a 7.75,7.75 0 1 0 0,-15.5 H 60.5 a 53.6895,53.6895 0 0 0 0,-20 h 7.75 a 7.75,7.75 0 1 0 0,-15.5 H 54.9974 A 53.6895,53.6895 0 0 0 36.251,0 Z"
         id="path2" />
    </clipPath>
    <linearGradient
       id="gradient-1"
       gradientUnits="userSpaceOnUse"
       x1="7"
       y1="64"
       x2="50"
       y2="107">
      <stop
         offset="0"
         stop-color="#f9a03c"
         id="stop5" />
      <stop
         offset="1"
         stop-color="#f7974e"
         id="stop7" />
    </linearGradient>
    <linearGradient
       id="gradient-3"
       gradientUnits="userSpaceOnUse"
       x1="45"
       y1="-10"
       x2="108"
       y2="53">
      <stop
         offset="0"
         stop-color="#b84e51"
         id="stop15" />
      <stop
         offset="1"
         stop-color="#f68e48"
         id="stop17" />
    </linearGradient>
    <linearGradient
       id="gradient-2"
       gradientUnits="userSpaceOnUse"
       x1="2"
       y1="-2"
       x2="87"
       y2="84">
      <stop
         offset="0"
         stop-color="#f26d58"
         id="stop10" />
      <stop
         offset="1"
         stop-color="#f9a03c"
         id="stop12" />
    </linearGradient>
  </defs>
  <sodipodi:namedview
     id="base"
     pagecolor="#ffffff"
     bordercolor="#666666"
     borderopacity="1.0"
     inkscape:pageopacity="0.0"
     inkscape:pageshadow="2"
     inkscape:zoom="7.6496097"
     inkscape:cx="4.7496317"
     inkscape:cy="7.1771895"
     inkscape:document-units="px"
     inkscape:current-layer="layer1"
     inkscape:document-rotation="0"
     showgrid="false"
     inkscape:window-width="1889"
     inkscape:window-height="1050"
     inkscape:window-x="9"
     inkscape:window-y="0"
     inkscape:window-maximized="0" />
  <metadata
     id="metadata62">
    <rdf:RDF>
      <cc:Work
         rdf:about="">
        <dc:format>image/svg+xml</dc:format>
        <dc:type
           rdf:resource="http://purl.org/dc/dcmitype/StillImage" />
        <dc:title></dc:title>
      </cc:Work>
    </rdf:RDF>
  </metadata>
  <g
     inkscape:label="Layer 1"
     inkscape:groupmode="layer"
     id="layer1">
    <g
       clip-path="url(#clip)"
       id="g26"
       transform="matrix(0.12172361,0,0,0.13095066,0.09038032,0.04047264)">
      <path
         d="m -100,-102 m -28,0 v 300 h 300 z"
         fill="url(#gradient-1)"
         id="path20"
         style="fill:url(#gradient-1)" />
      <path
         d="m -100,-102 m 28,0 h 300 v 300 z"
         fill="url(#gradient-3)"
         id="path22"
         style="fill:url(#gradient-3)" />
      <path
         d="M -100,-102 200,198"
         fill="none"
         stroke="url(#gradient-2)"
         stroke-width="40"
         id="path24"
         style="stroke:url(#gradient-2)" />
    </g>
  </g>
</svg>
